# MagicaVoxel @ Ephtracy

# group
o 

# material
mtllib MatthewsCar-0.mtl
usemtl palette

# normals
vn -1 0 0
vn 1 0 0
vn 0 0 1
vn 0 0 -1
vn 0 -1 0
vn 0 1 0

# texcoords
vt 0.849609 0.5
vt 0.927734 0.5
vt 0.958984 0.5
vt 0.962891 0.5
vt 0.994141 0.5

# verts
v -11.1 0 0.2
v -11.1 0 0
v -11.1 1.8 0.2
v -11.1 1.8 0
v -3.1 0 0.2
v -3.1 0 0
v -3.1 1.8 0.2
v -3.1 1.8 0
v -11.1 0 0.2
v -11.1 1.8 0.2
v -10.9 0.2 0.2
v -10.9 1.6 0.2
v -10.7 0.4 0.2
v -10.7 1.4 0.2
v -10.5 0.4 0.2
v -10.5 1 0.2
v -10.5 1.2 0.2
v -10.5 1.4 0.2
v -10.3 0.8 0.2
v -10.3 1 0.2
v -10.3 1.2 0.2
v -10.1 0.8 0.2
v -10.1 1 0.2
v -9.9 0.4 0.2
v -9.9 1 0.2
v -9.9 1.2 0.2
v -9.9 1.4 0.2
v -9.7 0.6 0.2
v -9.7 0.8 0.2
v -9.5 0.6 0.2
v -9.5 0.8 0.2
v -9.5 1 0.2
v -9.5 1.2 0.2
v -9.3 0.4 0.2
v -9.3 1.4 0.2
v -9.1 0.2 0.2
v -9.1 1.6 0.2
v -8.9 0.2 0.2
v -8.9 1.6 0.2
v -8.7 1.2 0.2
v -8.7 1.4 0.2
v -8.3 0.4 0.2
v -8.3 1.2 0.2
v -8.1 0.4 0.2
v -8.1 1.4 0.2
v -7.9 0.6 0.2
v -7.9 1.2 0.2
v -7.7 0.4 0.2
v -7.7 0.6 0.2
v -7.7 1.2 0.2
v -7.7 1.4 0.2
v -7.1 0.4 0.2
v -7.1 0.6 0.2
v -7.1 1.2 0.2
v -7.1 1.4 0.2
v -6.9 0.6 0.2
v -6.9 1.2 0.2
v -6.7 0.6 0.2
v -6.7 0.8 0.2
v -6.5 0.4 0.2
v -6.5 0.6 0.2
v -6.5 0.8 0.2
v -6.5 1.4 0.2
v -6.3 0.4 0.2
v -6.3 0.6 0.2
v -6.3 0.8 0.2
v -6.3 1.2 0.2
v -6.1 0.6 0.2
v -6.1 0.8 0.2
v -6.1 1 0.2
v -6.1 1.2 0.2
v -6.1 1.4 0.2
v -5.9 0.6 0.2
v -5.9 0.8 0.2
v -5.9 1 0.2
v -5.9 1.2 0.2
v -5.7 0.4 0.2
v -5.7 0.6 0.2
v -5.7 0.8 0.2
v -5.7 1.4 0.2
v -5.5 0.4 0.2
v -5.5 0.6 0.2
v -5.5 0.8 0.2
v -5.5 1.2 0.2
v -5.3 0.6 0.2
v -5.3 0.8 0.2
v -5.3 1 0.2
v -5.3 1.2 0.2
v -5.3 1.4 0.2
v -5.1 0.6 0.2
v -5.1 0.8 0.2
v -5.1 1 0.2
v -5.1 1.2 0.2
v -4.9 0.4 0.2
v -4.9 0.6 0.2
v -4.9 0.8 0.2
v -4.9 1.4 0.2
v -4.7 0.4 0.2
v -4.7 0.6 0.2
v -4.7 0.8 0.2
v -4.7 1.2 0.2
v -4.5 0.6 0.2
v -4.5 0.8 0.2
v -4.5 1 0.2
v -4.5 1.2 0.2
v -4.5 1.4 0.2
v -4.3 1 0.2
v -4.3 1.2 0.2
v -4.1 0.4 0.2
v -4.1 1 0.2
v -4.1 1.2 0.2
v -4.1 1.4 0.2
v -3.9 0.6 0.2
v -3.9 0.8 0.2
v -3.7 0.6 0.2
v -3.7 0.8 0.2
v -3.7 1 0.2
v -3.7 1.2 0.2
v -3.5 0.4 0.2
v -3.5 1.4 0.2
v -3.3 0.2 0.2
v -3.3 1.6 0.2
v -3.1 0 0.2
v -3.1 1.8 0.2
v -11.1 0 0
v -11.1 1.8 0
v -10.9 0.2 0
v -10.9 1.6 0
v -10.7 0.4 0
v -10.7 1.4 0
v -10.5 0.4 0
v -10.5 1 0
v -10.5 1.2 0
v -10.5 1.4 0
v -10.4 0.2 0
v -10.4 0.3 0
v -10.4 0.4 0
v -10.4 0.5 0
v -10.3 0.8 0
v -10.3 1 0
v -10.3 1.2 0
v -10.1 0.2 0
v -10.1 0.3 0
v -10.1 0.4 0
v -10.1 0.5 0
v -10.1 0.8 0
v -10.1 1 0
v -9.9 0.4 0
v -9.9 1 0
v -9.9 1.2 0
v -9.9 1.4 0
v -9.7 0.6 0
v -9.7 0.8 0
v -9.5 0.6 0
v -9.5 0.8 0
v -9.5 1 0
v -9.5 1.2 0
v -9.3 0.4 0
v -9.3 1.4 0
v -9.1 0.2 0
v -9.1 1.6 0
v -8.9 0.2 0
v -8.9 1.6 0
v -8.7 1.2 0
v -8.7 1.4 0
v -8.3 0.4 0
v -8.3 1.2 0
v -8.1 0.4 0
v -8.1 1.4 0
v -7.9 0.6 0
v -7.9 1.2 0
v -7.7 0.4 0
v -7.7 0.6 0
v -7.7 1.2 0
v -7.7 1.4 0
v -7.1 0.4 0
v -7.1 0.6 0
v -7.1 1.2 0
v -7.1 1.4 0
v -6.9 0.6 0
v -6.9 1.2 0
v -6.7 0.6 0
v -6.7 0.8 0
v -6.5 0.4 0
v -6.5 0.6 0
v -6.5 0.8 0
v -6.5 1.4 0
v -6.3 0.4 0
v -6.3 0.6 0
v -6.3 0.8 0
v -6.3 1.2 0
v -6.1 0.6 0
v -6.1 0.8 0
v -6.1 1 0
v -6.1 1.2 0
v -6.1 1.4 0
v -5.9 0.6 0
v -5.9 0.8 0
v -5.9 1 0
v -5.9 1.2 0
v -5.7 0.4 0
v -5.7 0.6 0
v -5.7 0.8 0
v -5.7 1.4 0
v -5.5 0.4 0
v -5.5 0.6 0
v -5.5 0.8 0
v -5.5 1.2 0
v -5.3 0.6 0
v -5.3 0.8 0
v -5.3 1 0
v -5.3 1.2 0
v -5.3 1.4 0
v -5.1 0.6 0
v -5.1 0.8 0
v -5.1 1 0
v -5.1 1.2 0
v -4.9 0.4 0
v -4.9 0.6 0
v -4.9 0.8 0
v -4.9 1.4 0
v -4.7 0.4 0
v -4.7 0.6 0
v -4.7 0.8 0
v -4.7 1.2 0
v -4.5 0.6 0
v -4.5 0.8 0
v -4.5 1 0
v -4.5 1.2 0
v -4.5 1.4 0
v -4.3 1 0
v -4.3 1.2 0
v -4.1 0.4 0
v -4.1 1 0
v -4.1 1.2 0
v -4.1 1.4 0
v -3.9 0.6 0
v -3.9 0.8 0
v -3.7 0.6 0
v -3.7 0.8 0
v -3.7 1 0
v -3.7 1.2 0
v -3.5 0.4 0
v -3.5 1.4 0
v -3.3 0.2 0
v -3.3 1.6 0
v -3.1 0 0
v -3.1 1.8 0
v -11.1 0 0.2
v -3.1 0 0.2
v -11.1 0 0
v -3.1 0 0
v -11.1 1.8 0.2
v -3.1 1.8 0.2
v -11.1 1.8 0
v -3.1 1.8 0

# faces
f 3/5/1 2/5/1 1/5/1
f 4/5/1 2/5/1 3/5/1
f 5/5/2 6/5/2 7/5/2
f 7/5/2 6/5/2 8/5/2
f 11/5/3 10/5/3 9/5/3
f 12/5/3 10/5/3 11/5/3
f 13/4/3 12/4/3 11/4/3
f 14/4/3 12/4/3 13/4/3
f 15/4/3 13/4/3 11/4/3
f 15/5/3 14/5/3 13/5/3
f 16/5/3 14/5/3 15/5/3
f 17/5/3 14/5/3 16/5/3
f 18/4/3 12/4/3 14/4/3
f 18/5/3 14/5/3 17/5/3
f 19/4/3 16/4/3 15/4/3
f 20/5/3 17/5/3 16/5/3
f 20/4/3 16/4/3 19/4/3
f 21/4/3 18/4/3 17/4/3
f 21/5/3 17/5/3 20/5/3
f 22/4/3 19/4/3 15/4/3
f 22/5/3 20/5/3 19/5/3
f 23/4/3 21/4/3 20/4/3
f 23/5/3 20/5/3 22/5/3
f 24/4/3 15/4/3 11/4/3
f 24/4/3 22/4/3 15/4/3
f 24/4/3 23/4/3 22/4/3
f 25/4/3 21/4/3 23/4/3
f 25/4/3 23/4/3 24/4/3
f 26/4/3 18/4/3 21/4/3
f 26/4/3 21/4/3 25/4/3
f 27/4/3 12/4/3 18/4/3
f 27/4/3 18/4/3 26/4/3
f 28/5/3 25/5/3 24/5/3
f 29/5/3 25/5/3 28/5/3
f 30/5/3 28/5/3 24/5/3
f 30/4/3 29/4/3 28/4/3
f 31/5/3 25/5/3 29/5/3
f 31/4/3 29/4/3 30/4/3
f 32/4/3 26/4/3 25/4/3
f 32/5/3 25/5/3 31/5/3
f 33/5/3 27/5/3 26/5/3
f 33/4/3 26/4/3 32/4/3
f 34/4/3 24/4/3 11/4/3
f 34/5/3 31/5/3 30/5/3
f 34/5/3 33/5/3 32/5/3
f 34/5/3 30/5/3 24/5/3
f 34/5/3 32/5/3 31/5/3
f 35/4/3 12/4/3 27/4/3
f 35/5/3 33/5/3 34/5/3
f 35/5/3 27/5/3 33/5/3
f 36/5/3 11/5/3 9/5/3
f 36/4/3 34/4/3 11/4/3
f 36/4/3 35/4/3 34/4/3
f 37/4/3 12/4/3 35/4/3
f 37/4/3 35/4/3 36/4/3
f 37/5/3 10/5/3 12/5/3
f 38/5/3 36/5/3 9/5/3
f 38/5/3 37/5/3 36/5/3
f 39/5/3 10/5/3 37/5/3
f 39/5/3 37/5/3 38/5/3
f 40/4/3 39/4/3 38/4/3
f 41/4/3 39/4/3 40/4/3
f 42/4/3 40/4/3 38/4/3
f 43/5/3 41/5/3 40/5/3
f 43/4/3 40/4/3 42/4/3
f 44/4/3 42/4/3 38/4/3
f 44/5/3 43/5/3 42/5/3
f 45/4/3 39/4/3 41/4/3
f 45/5/3 43/5/3 44/5/3
f 45/5/3 41/5/3 43/5/3
f 46/4/3 45/4/3 44/4/3
f 47/4/3 45/4/3 46/4/3
f 48/4/3 44/4/3 38/4/3
f 48/4/3 46/4/3 44/4/3
f 49/5/3 47/5/3 46/5/3
f 49/4/3 46/4/3 48/4/3
f 50/4/3 45/4/3 47/4/3
f 50/5/3 47/5/3 49/5/3
f 51/4/3 39/4/3 45/4/3
f 51/4/3 45/4/3 50/4/3
f 52/5/3 49/5/3 48/5/3
f 52/4/3 48/4/3 38/4/3
f 53/4/3 50/4/3 49/4/3
f 53/5/3 49/5/3 52/5/3
f 54/5/3 51/5/3 50/5/3
f 54/4/3 50/4/3 53/4/3
f 55/4/3 39/4/3 51/4/3
f 55/5/3 51/5/3 54/5/3
f 56/5/3 54/5/3 53/5/3
f 56/4/3 53/4/3 52/4/3
f 57/4/3 55/4/3 54/4/3
f 57/5/3 54/5/3 56/5/3
f 58/4/3 56/4/3 52/4/3
f 58/4/3 57/4/3 56/4/3
f 59/4/3 57/4/3 58/4/3
f 60/4/3 52/4/3 38/4/3
f 60/4/3 58/4/3 52/4/3
f 61/5/3 59/5/3 58/5/3
f 61/4/3 58/4/3 60/4/3
f 62/4/3 57/4/3 59/4/3
f 62/5/3 59/5/3 61/5/3
f 63/4/3 39/4/3 55/4/3
f 63/4/3 57/4/3 62/4/3
f 63/4/3 55/4/3 57/4/3
f 64/5/3 62/5/3 61/5/3
f 64/5/3 61/5/3 60/5/3
f 64/5/3 63/5/3 62/5/3
f 64/4/3 60/4/3 38/4/3
f 65/5/3 63/5/3 64/5/3
f 66/5/3 63/5/3 65/5/3
f 67/5/3 63/5/3 66/5/3
f 68/4/3 65/4/3 64/4/3
f 68/5/3 66/5/3 65/5/3
f 69/4/3 67/4/3 66/4/3
f 69/5/3 66/5/3 68/5/3
f 70/4/3 67/4/3 69/4/3
f 71/5/3 63/5/3 67/5/3
f 71/4/3 67/4/3 70/4/3
f 72/4/3 39/4/3 63/4/3
f 72/5/3 63/5/3 71/5/3
f 73/4/3 70/4/3 69/4/3
f 73/4/3 68/4/3 64/4/3
f 73/4/3 69/4/3 68/4/3
f 74/4/3 70/4/3 73/4/3
f 75/5/3 71/5/3 70/5/3
f 75/4/3 70/4/3 74/4/3
f 76/4/3 72/4/3 71/4/3
f 76/5/3 71/5/3 75/5/3
f 77/4/3 64/4/3 38/4/3
f 77/4/3 73/4/3 64/4/3
f 78/5/3 74/5/3 73/5/3
f 78/4/3 73/4/3 77/4/3
f 79/4/3 75/4/3 74/4/3
f 79/5/3 74/5/3 78/5/3
f 79/4/3 76/4/3 75/4/3
f 80/4/3 72/4/3 76/4/3
f 80/4/3 76/4/3 79/4/3
f 80/4/3 39/4/3 72/4/3
f 81/4/3 77/4/3 38/4/3
f 81/5/3 79/5/3 78/5/3
f 81/5/3 80/5/3 79/5/3
f 81/5/3 78/5/3 77/5/3
f 82/5/3 80/5/3 81/5/3
f 83/5/3 80/5/3 82/5/3
f 84/5/3 80/5/3 83/5/3
f 85/4/3 82/4/3 81/4/3
f 85/5/3 83/5/3 82/5/3
f 86/4/3 84/4/3 83/4/3
f 86/5/3 83/5/3 85/5/3
f 87/4/3 84/4/3 86/4/3
f 88/5/3 80/5/3 84/5/3
f 88/4/3 84/4/3 87/4/3
f 89/4/3 39/4/3 80/4/3
f 89/5/3 80/5/3 88/5/3
f 90/4/3 87/4/3 86/4/3
f 90/4/3 85/4/3 81/4/3
f 90/4/3 86/4/3 85/4/3
f 91/4/3 87/4/3 90/4/3
f 92/5/3 88/5/3 87/5/3
f 92/4/3 87/4/3 91/4/3
f 93/4/3 89/4/3 88/4/3
f 93/5/3 88/5/3 92/5/3
f 94/4/3 81/4/3 38/4/3
f 94/4/3 90/4/3 81/4/3
f 95/5/3 91/5/3 90/5/3
f 95/4/3 90/4/3 94/4/3
f 96/4/3 92/4/3 91/4/3
f 96/5/3 91/5/3 95/5/3
f 96/4/3 93/4/3 92/4/3
f 97/4/3 89/4/3 93/4/3
f 97/4/3 93/4/3 96/4/3
f 97/4/3 39/4/3 89/4/3
f 98/4/3 94/4/3 38/4/3
f 98/5/3 96/5/3 95/5/3
f 98/5/3 97/5/3 96/5/3
f 98/5/3 95/5/3 94/5/3
f 99/5/3 97/5/3 98/5/3
f 100/5/3 97/5/3 99/5/3
f 101/5/3 97/5/3 100/5/3
f 102/4/3 99/4/3 98/4/3
f 102/5/3 100/5/3 99/5/3
f 103/4/3 101/4/3 100/4/3
f 103/5/3 100/5/3 102/5/3
f 104/4/3 101/4/3 103/4/3
f 105/5/3 97/5/3 101/5/3
f 105/4/3 101/4/3 104/4/3
f 106/4/3 39/4/3 97/4/3
f 106/5/3 97/5/3 105/5/3
f 107/5/3 105/5/3 104/5/3
f 107/4/3 104/4/3 103/4/3
f 107/4/3 103/4/3 102/4/3
f 108/4/3 106/4/3 105/4/3
f 108/5/3 105/5/3 107/5/3
f 109/4/3 98/4/3 38/4/3
f 109/4/3 107/4/3 102/4/3
f 109/4/3 108/4/3 107/4/3
f 109/4/3 102/4/3 98/4/3
f 110/4/3 108/4/3 109/4/3
f 111/4/3 106/4/3 108/4/3
f 111/4/3 108/4/3 110/4/3
f 112/4/3 39/4/3 106/4/3
f 112/4/3 106/4/3 111/4/3
f 113/5/3 110/5/3 109/5/3
f 114/5/3 110/5/3 113/5/3
f 115/5/3 113/5/3 109/5/3
f 115/4/3 114/4/3 113/4/3
f 116/5/3 110/5/3 114/5/3
f 116/4/3 114/4/3 115/4/3
f 117/4/3 111/4/3 110/4/3
f 117/5/3 110/5/3 116/5/3
f 118/5/3 112/5/3 111/5/3
f 118/4/3 111/4/3 117/4/3
f 119/5/3 116/5/3 115/5/3
f 119/4/3 109/4/3 38/4/3
f 119/5/3 118/5/3 117/5/3
f 119/5/3 115/5/3 109/5/3
f 119/5/3 117/5/3 116/5/3
f 120/5/3 112/5/3 118/5/3
f 120/5/3 118/5/3 119/5/3
f 120/4/3 39/4/3 112/4/3
f 121/5/3 38/5/3 9/5/3
f 121/4/3 119/4/3 38/4/3
f 121/4/3 120/4/3 119/4/3
f 122/4/3 39/4/3 120/4/3
f 122/4/3 120/4/3 121/4/3
f 122/5/3 10/5/3 39/5/3
f 123/5/3 121/5/3 9/5/3
f 123/5/3 122/5/3 121/5/3
f 124/5/3 10/5/3 122/5/3
f 124/5/3 122/5/3 123/5/3
f 125/5/4 126/5/4 127/5/4
f 127/5/4 126/5/4 128/5/4
f 127/4/4 128/4/4 129/4/4
f 129/4/4 128/4/4 130/4/4
f 127/4/4 129/4/4 131/4/4
f 129/5/4 130/5/4 131/5/4
f 131/5/4 130/5/4 132/5/4
f 132/5/4 130/5/4 133/5/4
f 130/4/4 128/4/4 134/4/4
f 133/5/4 130/5/4 134/5/4
f 125/5/4 127/5/4 135/5/4
f 127/4/4 131/4/4 135/4/4
f 131/4/4 132/4/4 135/4/4
f 135/4/4 132/4/4 136/4/4
f 136/4/4 132/4/4 137/4/4
f 137/4/4 132/4/4 138/4/4
f 138/4/4 132/4/4 139/4/4
f 132/5/4 133/5/4 140/5/4
f 139/4/4 132/4/4 140/4/4
f 133/4/4 134/4/4 141/4/4
f 140/5/4 133/5/4 141/5/4
f 125/5/4 135/5/4 142/5/4
f 135/1/4 136/1/4 142/1/4
f 136/2/4 137/2/4 143/2/4
f 142/1/4 136/1/4 143/1/4
f 137/3/4 138/3/4 144/3/4
f 143/2/4 137/2/4 144/2/4
f 138/4/4 139/4/4 145/4/4
f 144/3/4 138/3/4 145/3/4
f 139/5/4 140/5/4 146/5/4
f 145/4/4 139/4/4 146/4/4
f 140/4/4 141/4/4 147/4/4
f 146/5/4 140/5/4 147/5/4
f 143/4/4 144/4/4 148/4/4
f 144/4/4 145/4/4 148/4/4
f 146/4/4 147/4/4 148/4/4
f 142/4/4 143/4/4 148/4/4
f 145/4/4 146/4/4 148/4/4
f 147/4/4 141/4/4 149/4/4
f 148/4/4 147/4/4 149/4/4
f 141/4/4 134/4/4 150/4/4
f 149/4/4 141/4/4 150/4/4
f 134/4/4 128/4/4 151/4/4
f 150/4/4 134/4/4 151/4/4
f 148/5/4 149/5/4 152/5/4
f 152/5/4 149/5/4 153/5/4
f 148/5/4 152/5/4 154/5/4
f 152/4/4 153/4/4 154/4/4
f 153/5/4 149/5/4 155/5/4
f 154/4/4 153/4/4 155/4/4
f 149/4/4 150/4/4 156/4/4
f 155/5/4 149/5/4 156/5/4
f 150/5/4 151/5/4 157/5/4
f 156/4/4 150/4/4 157/4/4
f 154/5/4 155/5/4 158/5/4
f 142/4/4 148/4/4 158/4/4
f 156/5/4 157/5/4 158/5/4
f 148/5/4 154/5/4 158/5/4
f 155/5/4 156/5/4 158/5/4
f 157/5/4 151/5/4 159/5/4
f 158/5/4 157/5/4 159/5/4
f 151/4/4 128/4/4 159/4/4
f 142/4/4 158/4/4 160/4/4
f 125/5/4 142/5/4 160/5/4
f 158/4/4 159/4/4 160/4/4
f 159/4/4 128/4/4 161/4/4
f 160/4/4 159/4/4 161/4/4
f 128/5/4 126/5/4 161/5/4
f 125/5/4 160/5/4 162/5/4
f 160/5/4 161/5/4 162/5/4
f 161/5/4 126/5/4 163/5/4
f 162/5/4 161/5/4 163/5/4
f 162/4/4 163/4/4 164/4/4
f 164/4/4 163/4/4 165/4/4
f 162/4/4 164/4/4 166/4/4
f 164/5/4 165/5/4 167/5/4
f 166/4/4 164/4/4 167/4/4
f 162/4/4 166/4/4 168/4/4
f 166/5/4 167/5/4 168/5/4
f 165/4/4 163/4/4 169/4/4
f 168/5/4 167/5/4 169/5/4
f 167/5/4 165/5/4 169/5/4
f 168/4/4 169/4/4 170/4/4
f 170/4/4 169/4/4 171/4/4
f 162/4/4 168/4/4 172/4/4
f 168/4/4 170/4/4 172/4/4
f 170/5/4 171/5/4 173/5/4
f 172/4/4 170/4/4 173/4/4
f 171/4/4 169/4/4 174/4/4
f 173/5/4 171/5/4 174/5/4
f 169/4/4 163/4/4 175/4/4
f 174/4/4 169/4/4 175/4/4
f 172/5/4 173/5/4 176/5/4
f 162/4/4 172/4/4 176/4/4
f 173/4/4 174/4/4 177/4/4
f 176/5/4 173/5/4 177/5/4
f 174/5/4 175/5/4 178/5/4
f 177/4/4 174/4/4 178/4/4
f 175/4/4 163/4/4 179/4/4
f 178/5/4 175/5/4 179/5/4
f 177/5/4 178/5/4 180/5/4
f 176/4/4 177/4/4 180/4/4
f 178/4/4 179/4/4 181/4/4
f 180/5/4 178/5/4 181/5/4
f 176/4/4 180/4/4 182/4/4
f 180/4/4 181/4/4 182/4/4
f 182/4/4 181/4/4 183/4/4
f 162/4/4 176/4/4 184/4/4
f 176/4/4 182/4/4 184/4/4
f 182/5/4 183/5/4 185/5/4
f 184/4/4 182/4/4 185/4/4
f 183/4/4 181/4/4 186/4/4
f 185/5/4 183/5/4 186/5/4
f 179/4/4 163/4/4 187/4/4
f 186/4/4 181/4/4 187/4/4
f 181/4/4 179/4/4 187/4/4
f 185/5/4 186/5/4 188/5/4
f 184/5/4 185/5/4 188/5/4
f 186/5/4 187/5/4 188/5/4
f 162/4/4 184/4/4 188/4/4
f 188/5/4 187/5/4 189/5/4
f 189/5/4 187/5/4 190/5/4
f 190/5/4 187/5/4 191/5/4
f 188/4/4 189/4/4 192/4/4
f 189/5/4 190/5/4 192/5/4
f 190/4/4 191/4/4 193/4/4
f 192/5/4 190/5/4 193/5/4
f 193/4/4 191/4/4 194/4/4
f 191/5/4 187/5/4 195/5/4
f 194/4/4 191/4/4 195/4/4
f 187/4/4 163/4/4 196/4/4
f 195/5/4 187/5/4 196/5/4
f 193/4/4 194/4/4 197/4/4
f 188/4/4 192/4/4 197/4/4
f 192/4/4 193/4/4 197/4/4
f 197/4/4 194/4/4 198/4/4
f 194/5/4 195/5/4 199/5/4
f 198/4/4 194/4/4 199/4/4
f 195/4/4 196/4/4 200/4/4
f 199/5/4 195/5/4 200/5/4
f 162/4/4 188/4/4 201/4/4
f 188/4/4 197/4/4 201/4/4
f 197/5/4 198/5/4 202/5/4
f 201/4/4 197/4/4 202/4/4
f 198/4/4 199/4/4 203/4/4
f 202/5/4 198/5/4 203/5/4
f 199/4/4 200/4/4 203/4/4
f 200/4/4 196/4/4 204/4/4
f 203/4/4 200/4/4 204/4/4
f 196/4/4 163/4/4 204/4/4
f 162/4/4 201/4/4 205/4/4
f 202/5/4 203/5/4 205/5/4
f 203/5/4 204/5/4 205/5/4
f 201/5/4 202/5/4 205/5/4
f 205/5/4 204/5/4 206/5/4
f 206/5/4 204/5/4 207/5/4
f 207/5/4 204/5/4 208/5/4
f 205/4/4 206/4/4 209/4/4
f 206/5/4 207/5/4 209/5/4
f 207/4/4 208/4/4 210/4/4
f 209/5/4 207/5/4 210/5/4
f 210/4/4 208/4/4 211/4/4
f 208/5/4 204/5/4 212/5/4
f 211/4/4 208/4/4 212/4/4
f 204/4/4 163/4/4 213/4/4
f 212/5/4 204/5/4 213/5/4
f 210/4/4 211/4/4 214/4/4
f 205/4/4 209/4/4 214/4/4
f 209/4/4 210/4/4 214/4/4
f 214/4/4 211/4/4 215/4/4
f 211/5/4 212/5/4 216/5/4
f 215/4/4 211/4/4 216/4/4
f 212/4/4 213/4/4 217/4/4
f 216/5/4 212/5/4 217/5/4
f 162/4/4 205/4/4 218/4/4
f 205/4/4 214/4/4 218/4/4
f 214/5/4 215/5/4 219/5/4
f 218/4/4 214/4/4 219/4/4
f 215/4/4 216/4/4 220/4/4
f 219/5/4 215/5/4 220/5/4
f 216/4/4 217/4/4 220/4/4
f 217/4/4 213/4/4 221/4/4
f 220/4/4 217/4/4 221/4/4
f 213/4/4 163/4/4 221/4/4
f 162/4/4 218/4/4 222/4/4
f 219/5/4 220/5/4 222/5/4
f 220/5/4 221/5/4 222/5/4
f 218/5/4 219/5/4 222/5/4
f 222/5/4 221/5/4 223/5/4
f 223/5/4 221/5/4 224/5/4
f 224/5/4 221/5/4 225/5/4
f 222/4/4 223/4/4 226/4/4
f 223/5/4 224/5/4 226/5/4
f 224/4/4 225/4/4 227/4/4
f 226/5/4 224/5/4 227/5/4
f 227/4/4 225/4/4 228/4/4
f 225/5/4 221/5/4 229/5/4
f 228/4/4 225/4/4 229/4/4
f 221/4/4 163/4/4 230/4/4
f 229/5/4 221/5/4 230/5/4
f 228/5/4 229/5/4 231/5/4
f 227/4/4 228/4/4 231/4/4
f 226/4/4 227/4/4 231/4/4
f 229/4/4 230/4/4 232/4/4
f 231/5/4 229/5/4 232/5/4
f 162/4/4 222/4/4 233/4/4
f 226/4/4 231/4/4 233/4/4
f 231/4/4 232/4/4 233/4/4
f 222/4/4 226/4/4 233/4/4
f 233/4/4 232/4/4 234/4/4
f 232/4/4 230/4/4 235/4/4
f 234/4/4 232/4/4 235/4/4
f 230/4/4 163/4/4 236/4/4
f 235/4/4 230/4/4 236/4/4
f 233/5/4 234/5/4 237/5/4
f 237/5/4 234/5/4 238/5/4
f 233/5/4 237/5/4 239/5/4
f 237/4/4 238/4/4 239/4/4
f 238/5/4 234/5/4 240/5/4
f 239/4/4 238/4/4 240/4/4
f 234/4/4 235/4/4 241/4/4
f 240/5/4 234/5/4 241/5/4
f 235/5/4 236/5/4 242/5/4
f 241/4/4 235/4/4 242/4/4
f 239/5/4 240/5/4 243/5/4
f 162/4/4 233/4/4 243/4/4
f 241/5/4 242/5/4 243/5/4
f 233/5/4 239/5/4 243/5/4
f 240/5/4 241/5/4 243/5/4
f 242/5/4 236/5/4 244/5/4
f 243/5/4 242/5/4 244/5/4
f 236/4/4 163/4/4 244/4/4
f 125/5/4 162/5/4 245/5/4
f 162/4/4 243/4/4 245/4/4
f 243/4/4 244/4/4 245/4/4
f 244/4/4 163/4/4 246/4/4
f 245/4/4 244/4/4 246/4/4
f 163/5/4 126/5/4 246/5/4
f 125/5/4 245/5/4 247/5/4
f 245/5/4 246/5/4 247/5/4
f 246/5/4 126/5/4 248/5/4
f 247/5/4 246/5/4 248/5/4
f 251/5/5 250/5/5 249/5/5
f 252/5/5 250/5/5 251/5/5
f 253/5/6 254/5/6 255/5/6
f 255/5/6 254/5/6 256/5/6
